<svg width="40" height="40" viewBox="0 0 40 40" fill="none" xmlns="http://www.w3.org/2000/svg">
<path d="M37.391 12.1739V7.82609H34.7824V5.21742H32.1737V2.60867H27.8258V0H12.1736V2.60867H7.82579V5.21734H5.21712V7.82602H2.60837V12.1738L0.000244141 12.1741V27.8263H2.60837V32.1738H5.21704V33.0434V34.7825H7.82572V35.652V37.3912H12.1735V38.2607V40H27.8258V38.2609V37.3913H32.1736V35.6522V34.7827H34.7823V33.0435V32.174H37.391V27.8264H38.261V27.8262H39.9996V12.1739H37.391ZM30.4345 12.1739V13.0434H27.8258V15.6521H25.2171V18.2608H22.6085V20.8695H25.2171V23.4781H27.8258V26.0868H30.4345V29.5651H24.3475V26.9564H21.7388V24.3477H18.2606V26.9564H15.6519V29.5651H9.56494V26.9564V26.0869H12.1736V23.4782H14.7823V20.8695H17.391V18.2609H14.7823V15.6522H12.1736V13.0435H9.56494V9.56523H15.6519V12.1739H18.2606V14.7826H21.7388V12.1739H24.3475V9.56523H30.4345V12.1739Z" fill="#F9F5FF"/>
</svg>
