<svg width="40" height="40" viewBox="0 0 40 40" fill="none" xmlns="http://www.w3.org/2000/svg">
<path d="M37.3913 0H2.60867H0V2.60867V7.82609V10.4348H2.60867H37.3913H40V7.82609V2.60867V0H37.3913ZM37.3913 7.82609H2.60867V2.60867H37.3913V7.82609H37.3913Z" fill="#F9F5FF"/>
<path d="M37.3913 14.7826H2.60867H0V17.3913V22.6087V25.2174H2.60867H37.3913H40V22.6087V17.3913V14.7826H37.3913ZM37.3913 22.6087H2.60867V17.3913H37.3913V22.6087H37.3913Z" fill="#F9F5FF"/>
<path d="M37.3913 29.5652H2.60867H0V32.1739V37.3913V40H2.60867H37.3913H40V37.3913V32.1739V29.5652H37.3913ZM37.3913 37.3913H2.60867V32.1739H37.3913V37.3913H37.3913Z" fill="#F9F5FF"/>
</svg>
