<svg width="100" height="100" viewBox="0 0 100 100" fill="none" xmlns="http://www.w3.org/2000/svg">
<path d="M93.4736 20.6539V14.1326H86.9521V7.61108H60.8666V14.1326H54.3451V20.6539H45.65V14.1326H39.1287V7.61108H13.043V14.1326H6.52168V20.6539H0.000190735V59.7822H6.52168V66.3037H13.043V72.8251H19.5644V79.3464H32.6072V85.8679H45.65V92.3892H54.3451V85.8679H67.3881V79.3464H80.4309V72.8251H86.9521V66.3037H93.4736V59.7849H100V20.6564L93.4736 20.6539Z" fill="#FF52A0"/>
<path d="M60.8666 7.61108V14.1326H54.3451V20.6539H45.65V27.1753H54.3451H60.8666V20.6539H67.3881V7.61108H60.8666Z" fill="white"/>
<path d="M13.043 14.1326H6.52168V20.6539H0.000190735V27.1753H6.52168H13.043V20.6539H19.5644V7.61108H13.043V14.1326Z" fill="white"/>
<path d="M13.043 14.1321H6.52147V20.6536H13.043V14.1321Z" fill="black"/>
<path d="M93.4734 14.1321H86.952V20.6536H93.4734V14.1321Z" fill="black"/>
<path d="M60.8664 14.1321H54.3449V20.6536H60.8664V14.1321Z" fill="black"/>
<path d="M13.043 59.7817H6.52147V66.3032H13.043V59.7817Z" fill="black"/>
<path d="M93.4734 59.7817H86.952V66.3032H93.4734V59.7817Z" fill="black"/>
<path d="M45.6498 79.3462H32.607V85.8677H45.6498V79.3462Z" fill="black"/>
<path d="M67.3877 79.3462H54.3449V85.8677H67.3877V79.3462Z" fill="black"/>
<path d="M45.6498 14.1321H39.1283V20.6536H45.6498V14.1321Z" fill="black"/>
<path d="M54.3449 20.6533H45.6498V27.1748H54.3449V20.6533Z" fill="black"/>
<path d="M80.4307 72.8245H67.3879V79.3459H80.4307V72.8245Z" fill="black"/>
<path d="M32.607 72.8245H19.5643V79.3459H32.607V72.8245Z" fill="black"/>
<path d="M19.5643 66.3035H13.0428V72.825H19.5643V66.3035Z" fill="black"/>
<path d="M86.9521 66.3035H80.4307V72.825H86.9521V66.3035Z" fill="black"/>
<path d="M54.3449 85.8674H45.6498V92.3889H54.3449V85.8674Z" fill="black"/>
<path d="M39.1283 7.6106H13.0428V14.1321H39.1283V7.6106Z" fill="black"/>
<path d="M86.952 7.6106H60.8664V14.1321H86.952V7.6106Z" fill="black"/>
<path d="M6.52148 20.6533H0V59.7816H6.52148V20.6533Z" fill="black"/>
<path d="M99.9949 20.6533H93.4734V59.7816H99.9949V20.6533Z" fill="black"/>
</svg>
