<svg width="50" height="50" viewBox="0 0 50 50" fill="none" xmlns="http://www.w3.org/2000/svg">
<path d="M46.7392 6.52178V3.26084H43.4783V0H6.52178V3.26084H3.26084V6.52168H0V43.4782H3.26084V46.7391H6.52168V50H43.4782V46.7392H46.7391V43.4783H50V6.52178H46.7392ZM38.0435 31.5218H34.7826V34.7826H31.5218V38.0435H18.4782V34.7826H15.2174V31.5218H11.9565V18.4782H15.2174V15.2174H18.4782V11.9565H31.5217V15.2174H34.7825V18.4782H38.0434V31.5218H38.0435ZM41.3044 13.0435H36.9565V8.6957H41.3044V13.0435Z" fill="black"/>
<path d="M31.5218 18.4784V15.2175H18.4782V18.4784H15.2174V31.5219H18.4782V34.7827H31.5218V31.5219H34.7826V18.4784H31.5218Z" fill="black"/>
</svg>
