<svg width="100" height="100" viewBox="0 0 100 100" fill="none" xmlns="http://www.w3.org/2000/svg">
<g clip-path="url(#clip0)">
<path d="M93.4783 30.4348V19.5652H86.9565V13.0436H80.4348V6.52168H69.5653V0H30.4348V6.52168H19.5652V13.0436H13.0436V19.5652H6.52169V30.4348L0.00156784 30.4354V69.5658H6.52169V80.4348H13.0436V82.6088V86.9564H19.5652V89.1305V93.4783H30.4348V95.6522V100H69.5653V95.6522V93.4783H80.4348V89.1305V86.9564H86.9565V82.6088V80.4348H93.4783V69.5658H95.6535V69.5652H100V30.4348H93.4783Z" fill="#FFDE46"/>
<path d="M93.4783 30.4348V19.5652H86.9564V13.0436H80.4348V6.52168H69.5652V0H30.4348V6.52168H19.5652V13.0436H13.0436V19.5652H6.52168V30.4348H0V36.9564H6.52168H13.0436V30.4348V26.0869H19.5652V19.5652H26.0869V13.0436H30.4348H69.5652H73.9131V19.5652H80.4348V26.0869H86.9564V30.4348V36.9564H93.4783H100V30.4348H93.4783Z" fill="white"/>
<path d="M30.4348 6.52169H19.5652V13.0434H30.4348V6.52169Z" fill="black"/>
<path d="M19.5652 13.0436H13.0436V19.5652H19.5652V13.0436Z" fill="black"/>
<path d="M13.0434 19.5652H6.52169V30.4348H13.0434V19.5652Z" fill="black"/>
<path d="M13.0434 69.5652H6.52169V80.4348H13.0434V69.5652Z" fill="black"/>
<path d="M19.5652 80.4348H13.0436V86.9564H19.5652V80.4348Z" fill="black"/>
<path d="M30.4348 86.9564H19.5652V93.4781H30.4348V86.9564Z" fill="black"/>
<path d="M69.5652 0H30.4348V6.52168H69.5652V0Z" fill="black"/>
<path d="M69.5652 93.4783H30.4348V100H69.5652V93.4783Z" fill="black"/>
<path d="M6.52168 30.4348H0V69.5652H6.52168V30.4348Z" fill="black"/>
<path d="M80.4348 6.52169H69.5652V13.0434H80.4348V6.52169Z" fill="black"/>
<path d="M86.9564 13.0436H80.4348V19.5652H86.9564V13.0436Z" fill="black"/>
<path d="M93.4781 19.5652H86.9564V30.4348H93.4781V19.5652Z" fill="black"/>
<path d="M93.4781 69.5652H86.9564V80.4348H93.4781V69.5652Z" fill="black"/>
<path d="M86.9564 80.4348H80.4348V86.9564H86.9564V80.4348Z" fill="black"/>
<path d="M80.4348 86.9564H69.5652V93.4781H80.4348V86.9564Z" fill="black"/>
<path d="M100 30.4348H93.4783V69.5652H100V30.4348Z" fill="black"/>
<path d="M32.6086 60.8695H26.0869V73.9131H32.6086V60.8695Z" fill="black"/>
<path d="M73.9129 60.8695H67.3912V73.9131H73.9129V60.8695Z" fill="black"/>
<path d="M67.3914 73.9131H32.6088V80.4348H67.3914V73.9131Z" fill="black"/>
<path d="M36.9566 26.0869H23.9131V52.1738H36.9566V26.0869Z" fill="black"/>
<path d="M76.0871 26.0869H63.0436V52.1738H76.0871V26.0869Z" fill="black"/>
</g>
<defs>
<clipPath id="clip0">
<rect width="100" height="100" fill="white"/>
</clipPath>
</defs>
</svg>
